<?xml version="1.0" standalone="no"?>
<!DOCTYPE svg PUBLIC "-//W3C//DTD SVG 20010904//EN"
 "http://www.w3.org/TR/2001/REC-SVG-20010904/DTD/svg10.dtd">
<svg version="1.0" xmlns="http://www.w3.org/2000/svg"
 width="290.000000pt" height="290.000000pt" viewBox="0 0 290.000000 290.000000"
 preserveAspectRatio="xMidYMid meet">
<metadata>
Created by potrace 1.11, written by Peter Selinger 2001-2013
</metadata>
<g transform="translate(0.000000,290.000000) scale(0.100000,-0.100000)"
fill="#000000" stroke="none">
<path d="M2580 2732 c-36 -70 -66 -129 -68 -131 -1 -3 -26 5 -55 17 -104 43
-160 55 -262 56 -151 1 -238 -20 -353 -86 -77 -43 -191 -159 -235 -238 -76
-138 -95 -316 -48 -462 27 -84 106 -203 174 -263 143 -126 315 -190 505 -186
124 2 250 42 352 112 54 36 128 106 119 112 -2 1 -65 48 -139 103 -74 55 -140
103 -146 107 -7 4 -38 -5 -69 -19 -112 -49 -245 -27 -320 52 -119 126 -61 318
111 370 50 15 159 13 176 -4 7 -7 -4 -38 -41 -106 l-51 -96 28 6 c15 4 149 43
297 87 149 43 280 81 293 84 24 6 27 20 12 55 -5 13 -53 138 -106 278 -53 140
-99 260 -103 267 -4 7 -34 -41 -71 -115z"/>
<path d="M216 2672 c-3 -3 -6 -99 -6 -213 l0 -208 -85 -84 c-47 -46 -85 -87
-85 -91 0 -3 38 -45 85 -93 l85 -87 0 -208 c0 -159 3 -208 13 -209 6 -1 103
-2 214 -3 l201 -1 -1 130 c-2 138 -3 137 60 203 7 7 17 21 22 30 5 9 12 15 15
12 2 -3 44 -86 91 -185 48 -99 91 -182 95 -185 5 -3 118 -5 252 -5 183 1 242
4 241 13 -3 10 -251 416 -384 626 -21 33 -35 65 -31 72 4 7 91 118 195 248
103 129 187 237 187 239 0 3 -106 5 -235 5 l-236 0 -32 -43 c-18 -24 -77 -109
-132 -189 -55 -80 -102 -146 -105 -146 -3 0 -5 84 -5 187 l0 188 -207 1 c-114
1 -209 -1 -212 -4z"/>
<path d="M2108 1313 l-57 -56 -200 0 -201 0 -1 -83 c0 -46 0 -109 0 -139 0
-30 0 -84 0 -120 l1 -65 150 0 150 0 0 -398 0 -398 218 1 217 0 3 398 2 397
150 0 150 0 0 100 c1 55 1 138 1 185 0 47 0 93 -1 103 0 17 -13 19 -201 19
l-201 0 -57 57 c-31 31 -59 56 -61 56 -3 0 -31 -26 -62 -57z"/>
<path d="M200 1045 l0 -213 -85 -84 c-47 -47 -85 -89 -85 -93 0 -4 38 -46 85
-93 l85 -85 0 -211 0 -211 213 0 212 0 2 133 2 132 43 54 c24 30 46 55 49 55
3 1 46 -83 96 -187 l90 -187 246 0 c135 0 249 4 253 8 4 4 0 15 -8 24 -8 10
-38 56 -67 103 -29 47 -56 92 -62 100 -172 274 -286 467 -281 476 4 7 91 118
195 247 103 129 187 237 187 240 0 2 -107 3 -237 3 l-237 -1 -76 -107 c-41
-59 -101 -144 -132 -190 l-58 -82 -1 70 c0 38 0 124 -1 190 l-1 121 -213 0
-214 0 0 -212z"/>
</g>
</svg>
